<svg xmlns="http://www.w3.org/2000/svg" width="1251" height="1251" viewBox="0 0 1251 1251" version="1.1">
	<path d="M 648.500 171.122 C 520.352 181.978, 401.815 247.661, 322.974 351.500 C 244.776 454.490, 214.330 588.108, 240.103 715.189 C 275.066 887.581, 407.763 1025.763, 578.841 1067.930 C 597.109 1072.433, 617.745 1076.080, 639.500 1078.650 C 660.703 1081.155, 713.297 1081.155, 734.500 1078.650 C 803.106 1070.545, 865.538 1049.735, 920.399 1016.687 L 926.051 1013.283 932.775 1015.203 C 942.016 1017.843, 959.620 1017.250, 968.858 1013.988 C 982.175 1009.287, 996.384 997.082, 1002.410 985.169 C 1009.874 970.414, 1011.421 953.276, 1006.628 938.422 C 1000.666 919.944, 986.918 905.682, 968.881 899.264 C 959.250 895.838, 944.417 895.025, 934.940 897.404 C 912.137 903.128, 894.481 920.965, 889.513 943.296 C 887.913 950.487, 887.808 950.647, 882.694 953.694 C 793.255 1006.982, 686.117 1021.521, 585.721 993.993 C 462.280 960.147, 362.065 863.965, 322.640 741.500 C 300.969 674.183, 298.697 601.029, 316.122 531.589 C 335.400 454.763, 380.884 382.777, 442.417 331.705 C 494.660 288.344, 557.120 259.466, 622.272 248.548 C 647.263 244.360, 658.192 243.524, 687.500 243.558 C 717.297 243.593, 730.115 244.708, 757 249.606 C 814.296 260.044, 869.876 284.607, 917.500 320.540 C 942.338 339.280, 946.500 345.015, 946.500 360.500 C 946.500 368.854, 946.254 369.954, 943.070 375.826 C 939.293 382.792, 934.218 387.680, 927.136 391.174 C 923.356 393.038, 920.838 393.463, 913.500 393.475 C 902.125 393.494, 898.467 391.906, 885.269 381.219 C 840.819 345.224, 790.254 323.089, 731.013 313.692 C 719.297 311.834, 713.377 311.551, 686.500 311.566 C 651.696 311.585, 640.424 312.799, 613.342 319.450 C 468.369 355.052, 367.480 486.932, 372.326 634.500 C 374.969 714.985, 405.110 786.374, 460.873 844.218 C 536.082 922.236, 644.140 955.176, 753.400 933.390 C 808.594 922.385, 858.845 896.991, 898.500 860.066 C 917.565 842.313, 938.387 816.644, 946.412 801 C 955.597 783.096, 959.581 765.194, 958.651 746 C 956.819 708.185, 935.493 674.191, 902 655.699 C 893.409 650.955, 876.549 645.430, 866.089 643.929 C 855.055 642.347, 835.776 643.261, 825.969 645.832 C 799.248 652.837, 781.132 665.359, 759.957 691.458 C 751.296 702.134, 743.668 708.103, 730.500 714.510 C 714.751 722.172, 705.068 724.374, 687 724.404 C 669.750 724.433, 659.843 722.321, 645.377 715.530 C 620.941 704.059, 604.396 686.728, 594.272 662 C 589.153 649.496, 587.532 640.315, 587.652 624.500 C 587.771 608.827, 590.142 597.260, 595.786 584.812 C 608.023 557.825, 633.380 536.319, 661.716 528.897 C 675.759 525.218, 698.042 525.289, 712.175 529.057 C 715.554 529.958, 716.016 530.539, 717.927 536.280 C 723.799 553.926, 740.931 569.587, 759.644 574.415 C 763.162 575.322, 769.873 576, 775.343 576 C 801.592 576, 823.918 559.803, 832.599 534.462 C 836.046 524.400, 836.492 509.094, 833.618 499.500 C 829.069 484.315, 818.343 470.504, 805.148 462.839 C 790.528 454.346, 769.523 452.551, 754.500 458.510 C 750.650 460.038, 746.150 461.291, 744.500 461.296 C 742.850 461.300, 736.293 459.918, 729.929 458.224 C 713.614 453.882, 703.850 452.682, 685.500 452.764 C 666.123 452.852, 651.577 455.158, 633.680 460.981 C 573.732 480.484, 529.402 530.682, 516.773 593.364 C 513.503 609.597, 513.521 640.490, 516.811 656.834 C 520.136 673.351, 525.082 687.643, 532.962 703.500 C 556.286 750.440, 599.818 783.389, 654.042 795.145 C 663.172 797.124, 667.357 797.412, 687 797.412 C 706.599 797.412, 710.854 797.121, 720 795.152 C 742.488 790.312, 765.078 781.075, 781.785 769.891 C 797.510 759.363, 805.750 751.750, 818.092 736.345 C 828.255 723.659, 833.377 719.815, 843.412 717.338 C 859.252 713.429, 875.049 721.333, 882.280 736.784 C 886.462 745.721, 886.644 755.729, 882.778 764.173 C 878.148 774.287, 861.990 794.287, 848.747 806.296 C 804.910 846.049, 750.594 866.260, 687.500 866.298 C 663.463 866.312, 647.857 864.447, 626.427 858.999 C 585.271 848.536, 550.093 828.641, 518.639 798.040 C 474.492 755.089, 449.952 701.691, 446.007 640 C 441.700 572.626, 466.048 507.007, 513.491 458.128 C 534.266 436.724, 554.990 421.536, 580.500 409.018 C 612.859 393.139, 642.414 385.684, 678.500 384.300 C 736.551 382.072, 793.354 401.197, 839.500 438.507 C 852.799 449.259, 857.423 452.343, 867.241 457.008 C 908.600 476.660, 956.385 468.372, 988.839 435.919 C 1027.458 397.300, 1030.941 336.155, 996.955 293.444 C 991.208 286.221, 981.934 277.727, 967.687 266.639 C 896.381 211.139, 812.996 178.623, 722.500 171.028 C 708.419 169.846, 662.878 169.904, 648.500 171.122" stroke="none" fill="black" fill-rule="evenodd"/>
</svg>